<svg xmlns="http://www.w3.org/2000/svg" viewBox="0 0 354.4 102.81"><defs><style>.cls-1{fill:#f39200;}.cls-2,.cls-3{fill:#f6f6f6;}.cls-3{font-size:80px;font-family:CenturyGothic-Bold, Century Gothic;font-weight:700;}</style></defs><title>eResurs 11</title><g id="Lager_2" data-name="Lager 2"><g id="Lager_1-2" data-name="Lager 1"><path class="cls-1" d="M0,77.74,13.21,66.13Q26.7,79.27,43.54,79.27q14.22,0,24-9a28.88,28.88,0,0,0,9.74-22.11,30.77,30.77,0,0,0-4.31-16.26,29.91,29.91,0,0,0-12.2-11.15,37.93,37.93,0,0,0-17.53-4,38.74,38.74,0,0,0-15,2.83q-6.8,2.84-15,10.31L.4,17.55q11-9.9,20.78-13.72A61,61,0,0,1,43.51,0Q66.66,0,81.39,13.53T96.13,48.22a44.65,44.65,0,0,1-6.71,24.33A48.47,48.47,0,0,1,70.19,89.66a57.84,57.84,0,0,1-26.95,6.47A60.35,60.35,0,0,1,19.6,91.35,56.43,56.43,0,0,1,0,77.74Z"/><ellipse id="_Bana_" data-name="&lt;Bana&gt;" class="cls-2" cx="42.95" cy="48.03" rx="38.7" ry="34.76"/><path class="cls-1" d="M21.55,51.82V44.2L64.35,29v7.81l-8.82,3.09V56l8.82,3.21V67ZM32.9,48l14.69,5.29V42.7Z"/><text class="cls-3" transform="translate(111.28 78.28)">Callell</text></g></g></svg>