<svg id="Layer_1" data-name="Layer 1" xmlns="http://www.w3.org/2000/svg" xmlns:xlink="http://www.w3.org/1999/xlink" viewBox="0 0 657 183"><defs><style>.cls-1{fill:none;}.cls-2{clip-path:url(#clip-path);}.cls-3,.cls-4{fill:#b8d55d;}.cls-3{opacity:0.71;}.cls-5{fill:url(#linear-gradient);}.cls-6{fill:url(#linear-gradient-2);}.cls-7{fill:url(#New_Gradient_Swatch_10);}.cls-8{fill:url(#linear-gradient-3);}.cls-9{fill:url(#New_Gradient_Swatch_11);}.cls-10{fill:url(#linear-gradient-4);}.cls-11{fill:url(#linear-gradient-5);}.cls-12{fill:url(#linear-gradient-6);}.cls-13{fill:#b86547;}.cls-14{fill:#abaab0;fill-rule:evenodd;}.cls-15{fill:#a9a8b1;}.cls-16{fill:url(#linear-gradient-7);}.cls-17{fill:#807667;}.cls-18{fill:url(#linear-gradient-8);}.cls-19{fill:url(#New_Gradient_Swatch_4);}.cls-20{fill:url(#New_Gradient_Swatch_3);}.cls-21{fill:url(#linear-gradient-9);}.cls-22{fill:url(#linear-gradient-10);}.cls-23{fill:url(#linear-gradient-11);}</style><clipPath id="clip-path"><rect class="cls-1" width="657" height="183"/></clipPath><linearGradient id="linear-gradient" x1="596.56" y1="25.13" x2="592.04" y2="28.51" gradientUnits="userSpaceOnUse"><stop offset="0" stop-color="#f4845a"/><stop offset="0.92" stop-color="#f16e4a"/><stop offset="1" stop-color="#f16c48"/></linearGradient><linearGradient id="linear-gradient-2" x1="598.16" y1="27.08" x2="601.1" y2="33.7" xlink:href="#linear-gradient"/><linearGradient id="New_Gradient_Swatch_10" x1="595.34" y1="24.71" x2="595.61" y2="14.79" xlink:href="#linear-gradient"/><linearGradient id="linear-gradient-3" x1="598.56" y1="26" x2="609.17" y2="26" xlink:href="#linear-gradient"/><linearGradient id="New_Gradient_Swatch_11" x1="595.86" y1="25.18" x2="596.26" y2="19.88" gradientUnits="userSpaceOnUse"><stop offset="0" stop-color="#f8a66b"/><stop offset="0.66" stop-color="#fcbc6f"/><stop offset="1" stop-color="#ffc972"/></linearGradient><linearGradient id="linear-gradient-4" x1="600.69" y1="28.45" x2="605.45" y2="22.78" xlink:href="#New_Gradient_Swatch_11"/><linearGradient id="linear-gradient-5" x1="594.97" y1="26.86" x2="593.98" y2="24.13" xlink:href="#New_Gradient_Swatch_11"/><linearGradient id="linear-gradient-6" x1="599.48" y1="29.38" x2="601.63" y2="28.74" xlink:href="#New_Gradient_Swatch_11"/><linearGradient id="linear-gradient-7" x1="564.5" y1="141.17" x2="563.83" y2="154.53" gradientUnits="userSpaceOnUse"><stop offset="0" stop-color="#a4c84f"/><stop offset="1" stop-color="#7ab542"/></linearGradient><linearGradient id="linear-gradient-8" x1="-3338.14" y1="-108.41" x2="-3321.46" y2="-139.53" gradientTransform="matrix(1, -0.03, 0.03, 1, 3888.44, 158.69)" gradientUnits="userSpaceOnUse"><stop offset="0" stop-color="#8d7e6d"/><stop offset="1" stop-color="#a98f7b"/></linearGradient><linearGradient id="New_Gradient_Swatch_4" x1="1493.82" y1="-14.48" x2="1577.32" y2="-14.48" gradientTransform="translate(-976.21 168.21) rotate(-3.06)" gradientUnits="userSpaceOnUse"><stop offset="0" stop-color="#93c83d"/><stop offset="0.99" stop-color="#11a24b"/></linearGradient><linearGradient id="New_Gradient_Swatch_3" x1="1486.85" y1="-17.95" x2="1587.96" y2="-17.95" gradientTransform="translate(-976.21 168.21) rotate(-3.06)" gradientUnits="userSpaceOnUse"><stop offset="0" stop-color="#bbd763"/><stop offset="1" stop-color="#71be4e"/></linearGradient><linearGradient id="linear-gradient-9" x1="1559.71" y1="-29.78" x2="1560.71" y2="17.7" gradientTransform="translate(-976.21 168.21) rotate(-3.06)" gradientUnits="userSpaceOnUse"><stop offset="0" stop-color="#79c043"/><stop offset="1" stop-color="#5fa947"/></linearGradient><linearGradient id="linear-gradient-10" x1="1517.37" y1="-14.77" x2="1551.05" y2="-14.77" gradientTransform="translate(-976.21 168.21) rotate(-3.06)" gradientUnits="userSpaceOnUse"><stop offset="0" stop-color="#86c440"/><stop offset="1" stop-color="#66a649"/></linearGradient><linearGradient id="linear-gradient-11" x1="1494.85" y1="3.09" x2="1517.16" y2="3.09" gradientTransform="translate(-976.21 168.21) rotate(-3.06)" gradientUnits="userSpaceOnUse"><stop offset="0" stop-color="#95c94d"/><stop offset="1" stop-color="#77b13f"/></linearGradient></defs><title>eRityta 2</title><g class="cls-2"><path class="cls-3" d="M664.53,187.89c-.91-12.25-2.91-24.29-.92-36.54,1.92-11.8,5.31-23.49,5.43-35.43,0-1.71,1.34-2.76,3-3.16-1.2-22.83-1.71-45.68-1.06-68.55C635.09,43,506.18,43,346.31,93.68c0,0-81.48,27.64-160.9,19.91,0,0-172.58-26-252.33,1.75L-78,197.56l742.25,39.22q.94-7.84,1.83-15.69c-.25-11.08-.7-22.14-1.52-33.2"/><path class="cls-4" d="M664.53,211.89c-.91-12.25-2.91-24.29-.92-36.54,1.92-11.8,5.31-23.49,5.43-35.43,0-1.71,1.34-2.76,3-3.16-1.2-22.83-1.71-45.68-1.06-68.55C635.09,67,434,71,346.31,117.68c0,0-57.31,31.32-160.9,19.91C185.41,137.59,57,123-65,168l-13,53.56,742.25,39.22q.94-7.84,1.83-15.69c-.25-11.08-.7-22.14-1.52-33.2"/><path class="cls-5" d="M597.5,25.61s-3.24-1.4-5-.25-1.08,1.84-.76,3-1.44,1.53-1.08,1.72c1.08.57,4.51-2.16,5.39-2.16S598.9,26.06,597.5,25.61Z"/><path class="cls-6" d="M599.35,26.65s2.93,1.83,2.83,3.88-1,1.92-2.28,2.35-.58,2-.93,1.85c-1.07-.55-.48-4.89-1-5.61S598.22,25.77,599.35,26.65Z"/><path class="cls-7" d="M598.07,24.28s1.4-5.59-3.81-7c-1.69-.47-2.16.89-1.65,1.53s.64.95.32,3.11,3,4.64,5.21,4.42C598.78,26.23,598.07,24.28,598.07,24.28Z"/><path class="cls-8" d="M600.33,25.22s3.75-4.4,8.08-.7c1.41,1.2.58,2.38-.26,2.3s-1.16,0-2.74,1.49-5.66.21-6.81-1.84C598.27,25.88,600.33,25.22,600.33,25.22Z"/><path class="cls-9" d="M597.39,24.8s1.24-5.53-1.84-4.93C593,20.38,596.47,21.82,597.39,24.8Z"/><path class="cls-10" d="M600.13,26s4.11-3.89,5.17-.94C606.19,27.49,603.16,25.23,600.13,26Z"/><path class="cls-11" d="M596.79,25.83s-3.62-1.32-3.74,1.09S593.53,25.35,596.79,25.83Z"/><path class="cls-12" d="M599.28,27.29s3.24,2.08,1.4,3.63S601.63,29.58,599.28,27.29Z"/><path class="cls-13" d="M598.37,24.91s2.52-1.1.54,1.51c-1,1.3-2.38,3.7-2.95,3.82S598.75,25.86,598.37,24.91Z"/><path class="cls-13" d="M598.8,25.3a4.7,4.7,0,0,0,.7-3.84c-.67-1.89-.19.22,0,.53C600,22.88,598.8,25.3,598.8,25.3Z"/><path class="cls-13" d="M598.87,25.63a4.72,4.72,0,0,1,2.45-3c1.89-.72,0,.29-.37.37C600,23.19,598.87,25.63,598.87,25.63Z"/><path class="cls-14" d="M77.21,6.44S69.62,4,67.39,6.16c2.28-.5,3.54-.65,9,1.93,1.16.55,2.32-.9,2.69-1.77.71-1.74-1-3.42,3.79-4.18C81.19,1.43,78.3,2.63,77.21,6.44Z"/><path class="cls-15" d="M101.91,41c2.59-3,5.23-1.33,8.94-2.39-3.81,3.09-6.8,1.89-7.86,3.08-.88,1-2.42,2.64-3.19,1-1.68-3.46.55-5.52-4.41-7.39C95.72,34.12,102.11,36.44,101.91,41Z"/><path class="cls-16" d="M520.58,142c-16-1.08,6.22,6.36,25.55,7.84,0,0,20.39,7.65,23.16,4S596,159,591.5,156.42s23.14-2.28,21.65-3.13S584.23,143.75,553,142C537.87,141.1,527.08,142.4,520.58,142Z"/><path class="cls-17" d="M556.12,120.88s-10.14-14.73-15-15.36C537,105,524,94,520.07,84.91c4.86,7,15.45,17.52,19.77,18.44,9.23,1.94,14.79,10.15,16.91,13.69C558.48,119.91,556.12,120.88,556.12,120.88Z"/><path class="cls-17" d="M555.71,123.32s9.61-14.76,13.76-16.4S573.8,97.26,584,85.18c-7.45,12.47-9.61,20.45-15.92,26.33-3.05,2.85-8.44,12.91-11,16.4S555.71,123.32,555.71,123.32Z"/><path class="cls-17" d="M555.46,145.45c-2.05,1-3.42.87-4.37-.07s1.74-18.63,1.78-21.21c.13-8.34-3.53-54.48,11.66-81.47-9.67,22.42-9.17,49.93-6.82,65,1.31,8.38,2.26,37.07,2.15,37.14C558.84,145.54,557.37,144.54,555.46,145.45Z"/><path class="cls-18" d="M559,144.51c.28-11.47-1-27.38-.72-29.75,0,0-.79,6.89-3,11.19-.2.41-1.25,19,.38,18.21A3.57,3.57,0,0,1,559,144.51Z"/><path class="cls-19" d="M556.48,33c4.86-.91,15.87,3.43,8.65,10.58,4.53-.6,14.32.69,12.63,11.44,3.34-2.59,10.28,2,5.61,10.72,3.71-.73,10,.33,4.43,7.65,10-9.32,15.15,12.11,6.08,20.23,9.5,7.46,5.82,14.45-1.89,16.54-.58,5.3-13.48,4.77-14.61-1.9C572,118.31,563.2,108,561.76,105c-.68-1.41-7.6,2.73-17.18-1.71-2.56-1.19-14.82,5.62-22,.86-4.1-2.73-9.63-6.9-4.68-11.67-3.31-2.78-4.41-10.3,2.24-10.66-9.22-5.88-1.41-8.88,1.7-5.66-.11-1.69.61-3.74,5.3-1.53-3.28-8.08.65-7.2-2-11.33-2.31-3.55-.79-8.11,3.5-9.86-4.78-6.68,6.19-8.94,11.15-3.15,0-3.27.39-8.36,2.45-7.33,2.86,1.42-1.11-4.66,1.77-8.91C550.6,24.27,558.39,29.47,556.48,33Z"/><path class="cls-17" d="M553.71,93.19s-11.06-6.63-12.35-10c-1.15-3-3.76-10.4-7.92-19.33,4.7,6.64,5.95,15,11,21.2,1.91,2.31,8.39,4.45,10.7,6.54S553.71,93.19,553.71,93.19Z"/><path class="cls-17" d="M549.42,91.32s-12.16-5.44-20.56-13.72c7.94,9.07,20.65,15.09,21.7,15S549.42,91.32,549.42,91.32Z"/><path class="cls-17" d="M552.74,57.22s-3.4-4.57-5.88-13.66c1.4,7.64,8.45,20.4,9.07,20.86S552.74,57.22,552.74,57.22Z"/><path class="cls-20" d="M562.51,27.65c2.46-4.87,8.16.33,6.48,5.67,4.55-.24,5.58,3.35,2.17,5.29,4,2.24,8.58,8.76,3.48,11.84,6.36.71-6.3,12.4,5.66,10.31,1.94-.34,3.05,1.69,3.14,2.41,7.28-9,11.66,6.26,8.72,9.76,1.44-.06,4.58.56,5.12,2,3.11-1.49,10.24,1.67,6.68,5.18,14.67,5.19-3.5,26.52-9.27,17-3,7.87-8.48,9-14.79,6.85.11,4.39-2.78,6-6,5.14-4.26-.82-4.85-5.36-6.08-8.45-4.08-10.66-9.18,1.46-17.16-3.38-2.89-1.6-2.18-9.3-5.23-8.41-15.32,4.51-2.21,12.16-10.39,15.65-2.65,1.14-5.57,2.23-12.27.31,5.42,7.32-7.37,6-11.23.25-4.11-6.2-4.06-16.3,3.57-12.13-3.51-5.78-6.82-8.13-2.33-15-.51-3.13-3.55-6.78.32-7.39,3.29-.52,5.54.74,7.26,4.11,3.29,1.4,5.63,3.15,6.38,6.08a13.59,13.59,0,0,1,8.73,2.79c2.31-1,5.35,0,7.82-1.92-2.52-1.28-7.54-1.63-9.31-3.37-2.67-2.62-1-8.75,2.65-5.79,3.27-9-4.93-5.75-7.79-11.48-3-6.06,6.21-6.77,9.28-3.67-1.23-3.44,5.94-.66,7.45,1.36,1.17-4.27,6.23-1.73,9.2-5.05-3.35-3.68-5-9.81-1.77-13.08,3.72-3.78-3.1-6.4,1.57-10.31C558.22,31.46,556.75,26.86,562.51,27.65Z"/><path class="cls-17" d="M575.62,99.58s13.45,1.16,24.79-4.08c-12.35,3.87-20.65,3.4-24.33,2.49C575.09,97.74,575.62,99.58,575.62,99.58Z"/><path class="cls-17" d="M566,75.14s6.32-2.36,13.74-9.11c-5.09,6.14-18.23,13.3-19,13.34S566,75.14,566,75.14Z"/><path class="cls-17" d="M548,109.8s-14.75-.89-25.38-7.45c11.8,5.32,21.11,5.94,24.88,5.55C549.75,107.67,548,109.8,548,109.8Z"/><path class="cls-21" d="M582,97.91c6.09,0,5.39-4.5,5.45-7.91,3.36-.58,5.77-.26,7.63,1.12,1.3-1,4.19-6.2-1.43-8.66-1.85-6-7.17-7.47-11.46-3.77-7-6.18-7,5.18-4.31,8-.37,5.37-13-1.71-10,10.17a4,4,0,0,0,3.53-.59C577.92,104.83,582.15,99,582,97.91Z"/><path class="cls-22" d="M544.08,60.32c2.51,3.75,3.66.29,6.83,5.35.65-5.91,6.85-.22,8.77,2,1.3-5.64,6.1.11,7.68,2.41,2.09.58,5,2.3,4.51,4.81-.6,3.21-8,3.12-10.47,2.91s-7.33-2.71-9.09.54c-.6,1.12,3.25,5.33-4,4.5.42,0-3,3.64-7.12.88-6.16-4.14-.11-10.87-.52-12.15-4.58-3.71-2.68-9.05-.22-8.47C539.84,61.51,542.51,58,544.08,60.32Z"/><path class="cls-23" d="M533.49,88.46c2.47-3-6.37-7.73-10-2.63,2-3.75-10.54-1.69-3.48,3-3-.42-5.49,5.44-1,5.2,3.45,2.38,5.38,2.53,9.82.29-.43,7.13,14.25,1.78,9.1-.5S540.24,91.05,533.49,88.46Z"/></g></svg>