<svg xmlns="http://www.w3.org/2000/svg" viewBox="0 0 4096 231.06"><defs><style>.cls-1,.cls-2{fill:#3fa9f5;}.cls-2{opacity:0.75;}</style></defs><title>Resurs 9</title><g id="Lager_2" data-name="Lager 2"><g id="Header-thin"><path class="cls-1" d="M0,132.89H629.75A1178,1178,0,0,1,863.89,156.4h0a2136.1,2136.1,0,0,0,871.28-4.52h0a859.14,859.14,0,0,1,179.67-19H2876l1220,56V0H0"/><path class="cls-2" d="M0,164.89H629.75A1178,1178,0,0,1,863.89,188.4h0a2136.1,2136.1,0,0,0,871.28-4.52h0a859.14,859.14,0,0,1,179.67-19H2876l1220,56V32H0"/></g></g></svg>