<svg xmlns="http://www.w3.org/2000/svg" viewBox="0 0 4096 592.13"><defs><style>.cls-1,.cls-2{fill:#3fa9f5;}.cls-1{opacity:0.8;}</style></defs><title>Resurs 1</title><g id="Lager_2" data-name="Lager 2"><g id="Lager_1-2" data-name="Lager 1"><path id="h-wave" class="cls-1" d="M0,0V461.72s365.72,240.63,800.48,68.16c230.72-91.53,512,9.33,717.62,26,29.37,2.39,57.19,3.06,83.11,1.21,181-12.95,178.54-61.69,347.77-91.17,96.17-16.75,169.24-12.15,257.86-28.91,67.33-12.73,214.79-102.24,317-158.36C2696.47,184,2902,90.2,3307,158.69S4096,109,4096,0Z"/><path id="h-wave-2" data-name="h-wave" class="cls-2" d="M0,0V382.06s98,243,565.33,82.06c248-85.41,546.71,18.69,766,38.91,31.34,2.89,61.05,4.07,88.76,2.74,193.54-9.32,191.75-57.14,373-82.87,103-14.63,181-8.76,275.91-23.53,72.13-11.22,231.16-96.2,341.32-149.3,186-89.63,415.79-186.38,847.13-111.7S4094.14,106.83,4096,0Z"/></g></g></svg>