<svg xmlns="http://www.w3.org/2000/svg" xmlns:xlink="http://www.w3.org/1999/xlink" viewBox="0 0 774.6 801.41"><defs><style>.cls-1{isolation:isolate;}.cls-2{fill:#4f4f4f;}.cls-3{fill:#fff;}.cls-4{fill:url(#linear-gradient);}.cls-5{fill:#bbbdbf;}.cls-11,.cls-12,.cls-13,.cls-14,.cls-15,.cls-16,.cls-17,.cls-18,.cls-19,.cls-20,.cls-21,.cls-22,.cls-23,.cls-6{mix-blend-mode:multiply;}.cls-6{fill:url(#radial-gradient);}.cls-7{fill:#d0d2d3;}.cls-8{fill:#e2e2e2;}.cls-9{fill:#fff9df;}.cls-10{opacity:0.79;}.cls-11{fill:url(#radial-gradient-2);}.cls-12{fill:url(#radial-gradient-3);}.cls-13{fill:url(#radial-gradient-4);}.cls-14{fill:url(#radial-gradient-5);}.cls-15{fill:url(#radial-gradient-6);}.cls-16{fill:url(#radial-gradient-7);}.cls-17{fill:url(#radial-gradient-8);}.cls-18{fill:url(#radial-gradient-9);}.cls-19{fill:url(#radial-gradient-10);}.cls-20{fill:url(#radial-gradient-11);}.cls-21{fill:url(#radial-gradient-12);}.cls-22{fill:url(#radial-gradient-13);}.cls-23{fill:url(#radial-gradient-14);}.cls-24{fill:#f1f1f2;}.cls-25{font-size:7.75px;font-family:MyriadPro-Regular, Myriad Pro;}.cls-26{letter-spacing:-0.01em;}.cls-27{letter-spacing:0em;}.cls-28{letter-spacing:-0.01em;}.cls-29{font-size:5.53px;}.cls-30{letter-spacing:-0.01em;}.cls-31{letter-spacing:-0.01em;}.cls-32{letter-spacing:0em;}.cls-33{letter-spacing:0em;}.cls-34{letter-spacing:-0.01em;}.cls-35{letter-spacing:0.01em;}.cls-36{letter-spacing:-0.01em;}.cls-37{letter-spacing:0em;}.cls-38{letter-spacing:0em;}.cls-39{letter-spacing:-0.01em;}.cls-40{letter-spacing:0em;}.cls-41{letter-spacing:-0.01em;}.cls-42{letter-spacing:-0.01em;}</style><linearGradient id="linear-gradient" x1="427.15" y1="273.55" x2="116.55" y2="787.17" gradientUnits="userSpaceOnUse"><stop offset="0" stop-color="#454545"/><stop offset="1" stop-color="#262626"/></linearGradient><radialGradient id="radial-gradient" cx="610.12" cy="-1175.14" r="164.5" gradientTransform="translate(0 351.28) scale(1 0.07)" gradientUnits="userSpaceOnUse"><stop offset="0" stop-color="#d0d2d3"/><stop offset="0.78" stop-color="#fff"/></radialGradient><radialGradient id="radial-gradient-2" cx="653.86" cy="249.94" r="58.09" gradientTransform="matrix(0.67, -0.58, 1.6, 1.86, -299.95, 58.41)" xlink:href="#radial-gradient"/><radialGradient id="radial-gradient-3" cx="583.52" cy="230.76" r="58.09" gradientTransform="matrix(-0.72, -0.54, -1.64, 1.73, 1491.1, 58.44)" xlink:href="#radial-gradient"/><radialGradient id="radial-gradient-4" cx="638.08" cy="381.77" r="58.09" gradientTransform="matrix(0.04, -1.07, 1.37, 0.05, 65.41, 853.88)" xlink:href="#radial-gradient"/><radialGradient id="radial-gradient-5" cx="638.08" cy="381.77" r="58.09" gradientTransform="matrix(0.04, -1.07, 1.37, 0.05, 65.41, 853.88)" xlink:href="#radial-gradient"/><radialGradient id="radial-gradient-6" cx="653.86" cy="249.94" r="58.09" gradientTransform="matrix(0.67, -0.58, 1.6, 1.86, -299.95, 58.41)" xlink:href="#radial-gradient"/><radialGradient id="radial-gradient-7" cx="638.08" cy="381.77" r="58.09" gradientTransform="matrix(0.04, -1.07, 1.37, 0.05, 65.41, 853.88)" xlink:href="#radial-gradient"/><radialGradient id="radial-gradient-8" cx="653.86" cy="249.95" r="58.07" gradientTransform="matrix(0.67, -0.58, 1.6, 1.86, -299.95, 58.41)" xlink:href="#radial-gradient"/><radialGradient id="radial-gradient-9" cx="638.14" cy="381.76" r="58.16" gradientTransform="matrix(0.04, -1.07, 1.37, 0.05, 65.41, 853.88)" xlink:href="#radial-gradient"/><radialGradient id="radial-gradient-10" cx="583.52" cy="230.76" r="58.09" gradientTransform="matrix(-0.72, -0.54, -1.64, 1.73, 1491.1, 58.44)" xlink:href="#radial-gradient"/><radialGradient id="radial-gradient-11" cx="638.08" cy="381.77" r="58.09" gradientTransform="matrix(0.04, -1.07, 1.37, 0.05, 65.41, 853.88)" xlink:href="#radial-gradient"/><radialGradient id="radial-gradient-12" cx="653.86" cy="249.94" r="58.09" gradientTransform="matrix(0.67, -0.58, 1.6, 1.86, -299.95, 58.41)" xlink:href="#radial-gradient"/><radialGradient id="radial-gradient-13" cx="583.52" cy="230.76" r="58.09" gradientTransform="matrix(-0.72, -0.54, -1.64, 1.73, 1491.1, 58.44)" xlink:href="#radial-gradient"/><radialGradient id="radial-gradient-14" cx="638.08" cy="381.77" r="58.09" gradientTransform="matrix(0.04, -1.07, 1.37, 0.05, 65.41, 853.88)" xlink:href="#radial-gradient"/></defs><title>Resurs 1</title><g class="cls-1"><g id="Lager_2" data-name="Lager 2"><g id="Layer_1" data-name="Layer 1"><path class="cls-2" d="M396.92,316.41c.88-.4,1.8-.79,2.75-1.16l-22-2.14.14,3.43L393,318.42c.44-.26.9-.51,1.38-.76C395.18,317.23,396,316.82,396.92,316.41Z"/><polygon class="cls-2" points="176.76 801.41 182.12 801.41 179.88 799.01 176.76 801.41"/><path class="cls-2" d="M494.78,382.35a18.55,18.55,0,0,0-5-7.24,48,48,0,0,0-9.39-6.69,109.15,109.15,0,0,0-13.16-6.18c-4.82-2-10.13-4-15.69-5.88s-11.12-3.72-16.85-5.58-11.22-3.67-16.67-5.57-10.47-3.77-15.24-5.76c-2.29-1-4.46-2-6.43-3.05a41.56,41.56,0,0,1-5.16-3.19,16.35,16.35,0,0,1-3.45-3.29,6.12,6.12,0,0,1-1.36-3.31.56.56,0,0,1,0-.13c-.06,1.51-.05,4.32,0,4.75a6.12,6.12,0,0,0,1.36,3.32,16.32,16.32,0,0,0,3.45,3.28,40.4,40.4,0,0,0,5.16,3.2c2,1.05,4.14,2.07,6.43,3,4.77,2,9.91,3.91,15.24,5.77s11.07,3.74,16.67,5.56,11.41,3.72,16.85,5.59,10.87,3.85,15.69,5.87a109.1,109.1,0,0,1,13.16,6.19,48,48,0,0,1,9.39,6.69,18.55,18.55,0,0,1,5,7.24,11.4,11.4,0,0,1,.37,1.39A11.2,11.2,0,0,0,494.78,382.35Z"/><path class="cls-2" d="M562.82,391.63a20.18,20.18,0,0,1,.25,4s0,0,0,.06v.17a16.67,16.67,0,0,1-1.91,6.77A28.61,28.61,0,0,1,556,409.5a51,51,0,0,1-8.46,6.82,87.08,87.08,0,0,1-11.8,6.45c-4.47,2.09-9.31,4.06-14.46,5.92s-10.75,3.67-16.48,5.34-11.85,3.29-18,4.8-12.59,3-19,4.33c-13,2.74-26.36,5.25-39.79,7.64-13.66,2.42-27.39,4.71-41,7-13.86,2.3-27.62,4.57-41.15,7-13.75,2.42-27.27,4.95-40.47,7.74-6.66,1.39-13.2,2.85-19.57,4.37S273.05,480,267,481.7s-12.08,3.51-17.77,5.39-11.27,3.91-16.48,6q-7,2.83-13.35,5.89c-4.27,2.07-8.31,4.22-12.16,6.49s-7.61,4.72-11.15,7.28-7,5.37-10.38,8.31l-1.34,1.21L183,523.51l-1.32,1.26c-.45.42-.89.85-1.32,1.28a92.78,92.78,0,0,0-17.56,22.54,76,76,0,0,0-8.64,26.1,79.79,79.79,0,0,0-.7,13.35,78.83,78.83,0,0,1,.7-8.73,76,76,0,0,1,8.64-26.09,93,93,0,0,1,17.56-22.55c.43-.43.87-.85,1.32-1.28l1.32-1.25c.45-.42.89-.83,1.34-1.23l1.34-1.21c3.33-2.94,6.77-5.7,10.38-8.31s7.25-5,11.15-7.28,7.89-4.43,12.16-6.49,8.65-4,13.35-5.89c5.21-2.1,10.72-4.1,16.48-6S260.84,488,267,486.33s12.35-3.31,18.8-4.85,12.91-3,19.57-4.37c13.2-2.79,26.72-5.32,40.47-7.75,13.53-2.38,27.29-4.65,41.15-7,13.65-2.26,27.38-4.55,41-7,13.43-2.39,26.76-4.9,39.79-7.65,6.4-1.36,12.76-2.8,19-4.32s12.18-3.1,18-4.8,11.26-3.45,16.48-5.34,10-3.83,14.46-5.93a87.09,87.09,0,0,0,11.8-6.44,52,52,0,0,0,8.46-6.82,28.46,28.46,0,0,0,5.15-6.92,16.62,16.62,0,0,0,1.91-6.77v-.17a.43.43,0,0,0,0,0C563.16,398.16,563.34,393.81,562.82,391.63Z"/><path class="cls-2" d="M176.76,796.78H30.49q-7.14-16.2-12.68-32.08A356.73,356.73,0,0,1,2,701.94,233,233,0,0,1,0,674.82c0,1,0,2,0,2.94a230.45,230.45,0,0,0,2,28.81,356.73,356.73,0,0,0,15.82,62.76q5.52,15.88,12.68,32.08H176.76l3.12-2.4,2.24,2.4H328c.06-1,0-4.63,0-4.63H176.76Z"/><path class="cls-2" d="M437.13,319.92h0c-.52.28-1,.56-1.45.84a14.08,14.08,0,0,0-1.21.84,8.83,8.83,0,0,0-.94.84,3.2,3.2,0,0,0-.21,4.87l.21-.25a8.83,8.83,0,0,1,.94-.84,14.09,14.09,0,0,1,1.21-.83c.44-.28.93-.56,1.45-.84.34-.18.73-.36,1.11-.54l26,3.21.51-3.86Z"/><path class="cls-3" d="M245.64,464.47l-3.19.86-3.2.86-3.21.89-3.19.91,1.51,1.18,1.53,1.2c1-.31,2.07-.61,3.11-.9l3.13-.88,3.13-.85,3.12-.85L247,465.68Z"/><path class="cls-3" d="M271.11,458.4l-3.17.7-3.18.72-3.17.73-3.18.75,1.24,1.22,1.26,1.23L264,463l3.13-.74,3.12-.71,3.13-.69-1.16-1.24Z"/><path class="cls-3" d="M296.2,453.3l-3.11.6-3.12.6-3.13.62-3.14.63,1.08,1.22,1.08,1.24,3.11-.62,3.1-.62,3.09-.61,3.1-.59-1-1.24Z"/><polygon class="cls-3" points="320.83 448.89 308.57 451.03 309.57 452.25 310.56 453.48 322.79 451.32 321.8 450.1 320.83 448.89"/><path class="cls-3" d="M194.77,481l-3.1,1.27-3.1,1.3-3.08,1.33c-1,.46-2,.91-3,1.38l2.42,1,2.42,1c.95-.45,1.92-.9,2.9-1.33s2-.87,2.94-1.3l3-1.26,3-1.23L196.92,482Z"/><polygon class="cls-3" points="344.93 444.94 332.94 446.87 333.92 448.07 334.91 449.29 346.91 447.33 345.92 446.13 344.93 444.94"/><path class="cls-3" d="M220.05,471.88l-3.2,1L213.67,474l-3.17,1.09-3.19,1.11,1.92,1.1,1.92,1.11,3.08-1.08,3.07-1.07,3.07-1,3.08-1-1.7-1.16Z"/><path class="cls-3" d="M170.5,492c-1,.5-1.95,1-2.92,1.53l-2.89,1.57-2.86,1.59c-1,.54-1.89,1.09-2.82,1.64l3,.76,3,.76c.89-.53,1.78-1.05,2.69-1.57s1.8-1,2.72-1.55l2.75-1.51,2.76-1.48-2.69-.88Z"/><polygon class="cls-3" points="368.44 441.25 356.76 443.07 357.78 444.25 358.81 445.44 370.57 443.59 369.5 442.42 368.44 441.25"/><polygon class="cls-3" points="391.32 437.69 379.97 439.46 381.07 440.61 382.18 441.77 393.65 439.96 392.48 438.82 391.32 437.69"/><polygon class="cls-3" points="413.44 434.12 402.48 435.91 403.71 437.02 404.94 438.14 416.04 436.3 414.74 435.2 413.44 434.12"/><polygon class="cls-3" points="434.61 430.4 424.15 432.28 425.53 433.35 426.93 434.42 437.57 432.49 436.08 431.44 434.61 430.4"/><polygon class="cls-3" points="179.88 794.39 176.76 796.78 182.12 796.78 179.88 794.39"/><path class="cls-3" d="M102.1,714.06c.66,1.27,1.34,2.54,2,3.82s1.38,2.56,2.09,3.85l6.84-3.55,6.72-3.47-8.11-14.58L105,703.32l-6.73,3.21,1.89,3.75Z"/><path class="cls-3" d="M80.93,660.17c.28,1.14.58,2.27.9,3.4l6.43-2.36,6.36-2.33q-.51-1.64-1-3.27c-.3-1.09-.59-2.17-.87-3.25s-.54-2.16-.79-3.23-.49-2.14-.72-3.2L85.05,648l-6.3,2.09c.21,1.11.43,2.22.65,3.34s.47,2.24.72,3.36S80.64,659.05,80.93,660.17Z"/><path class="cls-3" d="M90.09,688.16l1.48,3.63,6.65-2.93L104.8,686c-.52-1.17-1-2.33-1.53-3.49s-1-2.3-1.45-3.45-.93-2.28-1.38-3.42-.89-2.27-1.31-3.4l-6.47,2.61-6.55,2.63c.4,1.19.81,2.37,1.24,3.55s.88,2.37,1.33,3.56S89.61,687,90.09,688.16Z"/><polygon class="cls-3" points="129.14 729.72 122.34 733.51 115.46 737.37 126.02 753.51 132.96 749.31 139.76 745.18 129.14 729.72"/><path class="cls-3" d="M148.05,505.21c-.91.6-1.8,1.19-2.67,1.79s-1.75,1.21-2.61,1.82l-2.57,1.85-2.57,1.88,3.5.53,3.5.52,2.46-1.82c.82-.6,1.63-1.2,2.46-1.79l2.47-1.77c.84-.58,1.68-1.15,2.54-1.72l-3.26-.64Z"/><polygon class="cls-3" points="144.9 765.6 137.92 770.17 151.25 787.32 158.24 782.38 165.09 777.51 151.75 761.09 144.9 765.6"/><path class="cls-3" d="M89.37,566.83l5-.45,5-.45c.43-.83.85-1.67,1.29-2.5s.87-1.65,1.32-2.47.9-1.63,1.38-2.45,1-1.61,1.47-2.42l-4.76.26-4.77.25c-.55.83-1.08,1.67-1.59,2.51s-1,1.7-1.49,2.55-1,1.71-1.44,2.57Z"/><path class="cls-3" d="M114.17,537.62l-4.26-.11c-.67.75-1.34,1.51-2,2.28l-2,2.31q-1,1.17-1.92,2.34c-.63.79-1.24,1.58-1.84,2.37l4.51-.06,4.5-.06c.56-.77,1.13-1.52,1.72-2.28s1.19-1.51,1.8-2.26l1.85-2.22,1.88-2.2Z"/><path class="cls-3" d="M131.54,520.78l-3.75-.41c-.82.68-1.62,1.35-2.4,2l-2.34,2.07c-.76.7-1.53,1.39-2.28,2.1l-2.27,2.12,4,.27,4,.27,2.14-2.06c.72-.67,1.43-1.35,2.16-2s1.46-1.34,2.21-2,1.5-1.32,2.28-2Z"/><path class="cls-3" d="M83.46,580.25c-.33.92-.66,1.84-1,2.76s-.63,1.86-.92,2.79-.57,1.87-.83,2.81l5.44-.88,5.41-.87c.23-.9.47-1.8.73-2.7s.54-1.79.82-2.68.58-1.78.88-2.66.61-1.75.92-2.62l-5.2.65-5.23.66C84.15,578.42,83.8,579.34,83.46,580.25Z"/><path class="cls-3" d="M83.7,599l-5.65,1.11c-.19,1-.36,2-.52,2.94s-.29,2-.42,3-.24,2-.34,3-.2,2-.28,3l5.81-1.33,5.8-1.34c.06-1,.12-1.93.2-2.9s.16-1.91.25-2.87.2-1.9.33-2.85.25-1.88.41-2.82Z"/><path class="cls-3" d="M76.53,633.81c.08,1.07.18,2.14.29,3.21L83,635.18l6.11-1.83c-.14-1-.27-2.05-.38-3.08s-.21-2-.3-3.06-.16-2-.23-3-.13-2-.19-3l-5.94,1.58-6,1.59c0,1,.06,2.08.11,3.12s.09,2.11.15,3.16S76.44,632.75,76.53,633.81Z"/><path class="cls-4" d="M154.17,574.69a76,76,0,0,1,8.64-26.1,92.78,92.78,0,0,1,17.56-22.54c.43-.43.87-.86,1.32-1.28l1.32-1.26,1.34-1.23,1.34-1.21c3.33-2.94,6.77-5.7,10.38-8.31s7.25-5,11.15-7.28,7.89-4.42,12.16-6.49,8.65-4,13.35-5.89c5.21-2.1,10.72-4.1,16.48-6s11.63-3.68,17.77-5.39,12.35-3.3,18.8-4.85,12.91-3,19.57-4.37c13.2-2.79,26.72-5.32,40.47-7.74,13.53-2.39,27.29-4.66,41.15-7,13.65-2.27,27.38-4.56,41-7,13.43-2.39,26.76-4.9,39.79-7.64,6.4-1.37,12.76-2.8,19-4.33s12.18-3.1,18-4.8,11.26-3.45,16.48-5.34,10-3.83,14.46-5.92a87.08,87.08,0,0,0,11.8-6.45A51,51,0,0,0,556,409.5a28.61,28.61,0,0,0,5.15-6.91,16.67,16.67,0,0,0,1.91-6.77v-.17s0,0,0-.06a21.08,21.08,0,0,0-.77-6.34,23.64,23.64,0,0,0-2.75-6,34.43,34.43,0,0,0-4.58-5.71,52.21,52.21,0,0,0-6.28-5.39,77.84,77.84,0,0,0-7.78-5c-2.76-1.58-5.71-3.09-8.79-4.55s-6.2-2.8-9.44-4.1-6.46-2.53-9.76-3.7c-6.48-2.3-13.06-4.41-19.53-6.39-6.31-1.93-12.53-3.73-18.44-5.44s-11.32-3.25-16.35-4.79-9.43-2.95-13.26-4.38a64.86,64.86,0,0,1-7.3-3.08,18.17,18.17,0,0,1-4.3-2.88,4.93,4.93,0,0,1-.44-.5,3.2,3.2,0,0,1,.21-4.87,8.83,8.83,0,0,1,.94-.84,14.08,14.08,0,0,1,1.21-.84c.44-.28.93-.56,1.45-.84h0l27.63,3.44-4.61-27.68-82.52,17.43,22,2.14c-.95.37-1.87.76-2.75,1.16s-1.74.82-2.54,1.25c-.48.25-.94.5-1.38.76s-.62.36-.92.55c-.71.45-1.38.91-2,1.38a15.21,15.21,0,0,0-1.66,1.47,9.91,9.91,0,0,0-1.22,1.54,5.89,5.89,0,0,0-.71,1.59,4.4,4.4,0,0,0-.14,1.53.56.56,0,0,0,0,.13,6.12,6.12,0,0,0,1.36,3.31,16.35,16.35,0,0,0,3.45,3.29,41.56,41.56,0,0,0,5.16,3.19c2,1.05,4.14,2.07,6.43,3.05,4.77,2,9.91,3.9,15.24,5.76s11.07,3.74,16.67,5.57,11.41,3.71,16.85,5.58,10.87,3.86,15.69,5.88a109.15,109.15,0,0,1,13.16,6.18,48,48,0,0,1,9.39,6.69,18.55,18.55,0,0,1,5,7.24,11.2,11.2,0,0,1,.37,6,12.37,12.37,0,0,1-.51,1.79l0,.08-.07.18,0,.09,0,.05a.14.14,0,0,0,0,.06l0,.06,0,.05c-1,2.61-3.12,5.09-6.42,7.45a61.17,61.17,0,0,1-13.52,6.88,179.37,179.37,0,0,1-20.42,6.31c-8,2-17,3.93-26.95,5.75s-20.72,3.66-31.94,5.4c-11.38,1.77-23.29,3.51-35.65,5.32-12.53,1.83-25.54,3.75-38.95,5.84-13.63,2.13-27.72,4.46-42.24,7.11q-11,2-22.52,4.42c-7.74,1.62-15.64,3.38-23.62,5.32s-16.32,4.12-24.6,6.5c-8.43,2.42-17,5.08-25.53,8-7.71,2.59-15.36,5.46-22.86,8.55-7.66,3.16-15.2,6.56-22.52,10.15-7.51,3.68-14.8,7.57-21.78,11.6-7.15,4.15-14,8.46-20.38,12.86l-2.62,1.83-2.57,1.85-2.53,1.86c-.84.62-1.66,1.25-2.48,1.87a258.22,258.22,0,0,0-20.76,17.16A234.06,234.06,0,0,0,45,551.94,202.37,202.37,0,0,0,29,573a168.7,168.7,0,0,0-12.63,22.75,175.06,175.06,0,0,0-9.12,24.32,177.69,177.69,0,0,0-5.48,25.78A195.34,195.34,0,0,0,0,673.14c0,.56,0,1.12,0,1.68a233,233,0,0,0,2,27.12A356.73,356.73,0,0,0,17.81,764.7q5.52,15.88,12.68,32.08H176.76l3.12-2.39,2.24,2.39H328c-17.56-12-34.3-24.38-49.94-36.92a637.9,637.9,0,0,1-49.44-43.81A417.41,417.41,0,0,1,192,675.14a244.59,244.59,0,0,1-24.08-37.07,129.87,129.87,0,0,1-12.49-33.57,92.87,92.87,0,0,1-2-16.46A79.79,79.79,0,0,1,154.17,574.69ZM490.54,358.43l1.78-.29,1.28.49,1.27.5,1.27.5,1.25.51-1.84.28-1.85.28-1.22-.5-1.23-.5-1.25-.49-1.24-.48Zm37.3,36.25,2.69.24a6.35,6.35,0,0,1-.28.8c-.1.26-.23.53-.36.79s-.27.53-.42.8l-.43.8-2.7-.31-2.7-.31.44-.76c.15-.26.29-.51.42-.77a7.6,7.6,0,0,0,.37-.76,5.34,5.34,0,0,0,.28-.76Zm-11.1,14.41-1.29.76-1.38.74-2.51-.61-2.49-.61c.46-.23.9-.47,1.33-.7l1.26-.72c.41-.24.81-.48,1.2-.73l1.17-.72,2.58.53,2.59.54-1.21.76C517.58,408.59,517.17,408.84,516.74,409.09Zm9.91-7.8c-.23.27-.47.54-.72.8s-.52.53-.79.79-.56.53-.86.79-.59.53-.9.79l-2.65-.46-2.63-.46.88-.75c.29-.24.57-.5.83-.75l.78-.75c.25-.25.48-.51.71-.76l2.67.38Zm1.42-15.75-2.58-.07a4.79,4.79,0,0,0-.19-.72c-.07-.25-.17-.49-.26-.73l-.3-.71c-.1-.24-.2-.48-.29-.72l2.53,0,2.53,0c.1.25.2.49.31.74l.33.74c.1.25.2.5.29.74a6.61,6.61,0,0,1,.22.76Zm-2.62-8.6.6.69.6.7c.2.24.39.47.57.71s.35.47.51.71l-2.47,0-2.45,0c-.15-.23-.31-.45-.48-.68s-.35-.46-.53-.68l-.57-.68-.56-.67,2.39-.07Zm-5.16-2.6-2.32.11c-.23-.22-.47-.43-.72-.64s-.51-.43-.78-.64l-.81-.63-.82-.63,2.23-.15,2.24-.15.86.65.85.65c.28.21.55.43.82.65s.52.44.76.67Zm-5.73-5.84,1,.61-2.15.18-2.16.19-1-.6-1-.58-1-.59-1-.57,2.08-.21,2.06-.22c.37.19.72.39,1.08.59l1,.59ZM505,364.66l-2,.24-1.13-.55-1.13-.54-1.15-.53-1.16-.53,1.91-.26,1.91-.26,1.2.54,1.18.54,1.17.55,1.17.56Zm1.46,49.56-1.67.71-1.72.69-1.77.69-2.3-.75-2.28-.74,1.71-.65,1.66-.67,1.62-.67,1.57-.67,2.39.67,2.41.68C507.58,413.75,507,414,506.49,414.22ZM531.32,391c0,.26,0,.52-.07.78l-2.66-.17-2.66-.18c0-.25.06-.5.08-.75s0-.5,0-.75v-.75c0-.25,0-.5,0-.75l2.63.12,2.63.13c0,.25,0,.51.05.77s0,.51,0,.77S531.33,390.72,531.32,391ZM411.48,327.05l.18.37.22.37.26.37-1.8.06-1.81.07c-.09-.13-.17-.26-.25-.39a3.84,3.84,0,0,1-.22-.39l-.19-.38c-.05-.13-.11-.26-.15-.39l1.8,0,1.81,0A3.59,3.59,0,0,0,411.48,327.05Zm2.25-5.92-.1.08-.09.07-.1.08,0,0,0,0,0,0,0,0-.24.23-.24.23-.22.23-.22.24-1.73-.07-1.72-.07.12-.12.12-.12.11-.12.13-.12.09-.09.09-.09.1-.09.09-.09,0,0,0,0,0,0,0,0h0l0,0h0l.05,0,.05,0,0,0,.05,0,.06-.05.07-.06.07-.05.08-.06,1.67.1,1.68.09Zm-4,2.62,1.76,0c-.06.12-.11.23-.16.35s-.08.24-.11.36-.05.24-.06.36a2.2,2.2,0,0,0,0,.36h-3.58c0-.12,0-.25.05-.38s0-.25.08-.37a2.29,2.29,0,0,1,.12-.37,2.53,2.53,0,0,1,.18-.37Zm4,7.52-1.77.14-.56-.39-.52-.39-.48-.39-.44-.39,1.78-.1,1.8-.1.43.37.47.38c.16.12.33.25.51.37s.35.25.54.37Zm-1.32-11.75.56-.33c.18-.11.37-.22.57-.32l.59-.33.63-.31,1.58.13,1.58.14-.6.3-.57.32-.55.31-.53.32-1.63-.12Zm6.79,14.79-1.71.19-.79-.38-.76-.39-.74-.38-.71-.39,1.74-.16,1.74-.16.69.37.72.37.75.37.77.38Zm7.15,3-1.65.23-1-.38-1-.38-.94-.38-.92-.38,1.68-.21,1.68-.21.9.37.92.37.94.37,1,.36Zm8.4,3-1.61.27-1.1-.38-1.1-.38-1.08-.37-1.07-.38,1.63-.25,1.61-.25,1.06.37,1.07.37,1.08.37,1.1.37Zm9.32,3-1.58.29-4.77-1.52,1.59-.28,1.58-.28,4.74,1.5Zm9.94,3.07-1.57.31-5-1.56,1.57-.29,1.57-.3,5,1.54Zm10.36,3.19-1.6.31-5.19-1.61,1.58-.31,1.58-.31,5.22,1.61Zm10.54,3.37-1.65.31L468,351.54l1.62-.31,1.61-.31,5.32,1.7Zm10.48,3.59-1.74.3-1.28-.46-1.29-.46-1.29-.45-1.3-.45,1.69-.31,1.68-.31,1.31.46,1.32.45,1.32.46,1.31.47ZM133,749.31l-6.94,4.2-10.56-16.14,6.88-3.86,6.8-3.79,10.62,15.46Zm-34.7-42.78,6.73-3.21,6.67-3.19,8.11,14.58-6.72,3.47-6.84,3.55c-.71-1.29-1.4-2.57-2.09-3.85s-1.36-2.55-2-3.82l-1.95-3.78ZM87.35,681c-.43-1.18-.84-2.36-1.24-3.55l6.55-2.63,6.47-2.61c.42,1.13.86,2.26,1.31,3.4s.91,2.28,1.38,3.42,1,2.3,1.45,3.45,1,2.32,1.53,3.49l-6.58,2.88-6.65,2.93-1.48-3.63c-.48-1.2-1-2.4-1.41-3.59S87.78,682.19,87.35,681ZM79.4,653.43c-.22-1.12-.44-2.23-.65-3.34l6.3-2.09,6.23-2.07c.23,1.06.47,2.13.72,3.2s.52,2.15.79,3.23.57,2.16.87,3.25.62,2.18,1,3.27l-6.36,2.33-6.43,2.36c-.32-1.13-.62-2.26-.9-3.4s-.55-2.25-.81-3.38S79.63,654.55,79.4,653.43Zm-3.24-26c0-1-.08-2.09-.11-3.12l6-1.59L88,621.17c.06,1,.12,2,.19,3s.14,2,.23,3,.19,2,.3,3.06.24,2.06.38,3.08L83,635.18,76.82,637c-.11-1.07-.21-2.14-.29-3.21s-.16-2.13-.22-3.19S76.2,628.51,76.16,627.46ZM93.7,559.11c.51-.84,1-1.68,1.59-2.51l4.77-.25,4.76-.26c-.51.81-1,1.61-1.47,2.42s-.93,1.63-1.38,2.45-.89,1.65-1.32,2.47-.86,1.67-1.29,2.5l-5,.45-5,.45,1.4-2.6c.47-.86,1-1.71,1.44-2.57S93.19,560,93.7,559.11Zm39.32-36c-.75.66-1.48,1.33-2.21,2s-1.44,1.35-2.16,2l-2.14,2.06-4-.27-4-.27,2.27-2.12c.75-.71,1.52-1.4,2.28-2.1l2.34-2.07c.78-.68,1.58-1.35,2.4-2l3.75.41,3.76.4C134.52,521.83,133.76,522.49,133,523.15Zm-16.46,16.78-1.85,2.22c-.61.75-1.21,1.5-1.8,2.26s-1.16,1.51-1.72,2.28l-4.5.06-4.51.06c.6-.79,1.21-1.58,1.84-2.37s1.27-1.56,1.92-2.34l2-2.31c.66-.77,1.33-1.53,2-2.28l4.26.11,4.27.11ZM89.73,576.85l5.2-.65c-.31.87-.62,1.74-.92,2.62s-.6,1.77-.88,2.66-.56,1.78-.82,2.68-.5,1.8-.73,2.7l-5.41.87-5.44.88c.26-.94.54-1.87.83-2.81s.6-1.86.92-2.79.65-1.84,1-2.76.69-1.83,1-2.74Zm-.85,23.88c-.13.95-.23,1.9-.33,2.85s-.18,1.91-.25,2.87-.14,1.93-.2,2.9l-5.8,1.34L76.49,612c.08-1,.18-2,.28-3s.22-2,.34-3,.27-2,.42-3,.33-2,.52-2.94L83.7,599l5.59-1.1C89.13,598.85,89,599.79,88.88,600.73ZM152,508.22,149.55,510c-.83.59-1.64,1.19-2.46,1.79l-2.46,1.82-3.5-.52-3.5-.53,2.57-1.88,2.57-1.85c.86-.61,1.73-1.21,2.61-1.82s1.76-1.19,2.67-1.79l3.25.65,3.26.64C153.7,507.07,152.86,507.64,152,508.22Zm21.09-13-2.75,1.51c-.92.51-1.82,1-2.72,1.55s-1.8,1-2.69,1.57l-3-.76-3-.76c.93-.55,1.87-1.1,2.82-1.64l2.86-1.59,2.89-1.57c1-.51,1.94-1,2.92-1.53l2.68.86,2.69.88Zm23-11-3,1.26c-1,.43-2,.86-2.94,1.3s-1.95.88-2.9,1.33l-2.42-1-2.42-1c1-.47,2-.92,3-1.38l3.08-1.33,3.1-1.3,3.1-1.27,2.15,1,2.17,1.05Zm24.26-9.09-3.07,1-3.07,1.07-3.08,1.08-1.92-1.11-1.92-1.1,3.19-1.11,3.17-1.09,3.18-1.07,3.2-1,1.7,1.15,1.7,1.16Zm24.89-7.46-3.13.85-3.13.88c-1,.29-2.08.59-3.11.9l-1.53-1.2L232.85,468l3.19-.91,3.21-.89,3.2-.86,3.19-.86,1.36,1.21,1.38,1.21Zm25-6.18-3.12.71L264,463l-3.12.74-1.26-1.23-1.24-1.22,3.18-.75,3.17-.73,3.18-.72,3.17-.7,1.14,1.23,1.16,1.24Zm24.88-5.2-3.09.61-3.1.62-3.11.62L284.78,457l-1.08-1.22,3.14-.63,3.13-.62,3.12-.6,3.11-.6,1,1.23,1,1.24Zm15.4-2.88-1-1.23-1-1.22,12.26-2.14,1,1.21,1,1.23Zm24.35-4.19-1-1.22-1-1.2,12-1.94,1,1.2,1,1.2Zm23.9-3.85-1-1.19-1-1.18,11.69-1.82,1.05,1.17,1.07,1.17Zm23.37-3.67-1.11-1.16-1.1-1.15,11.36-1.77,1.15,1.13,1.17,1.14Zm22.76-3.63L403.71,437l-1.23-1.11,10.95-1.79,1.31,1.09,1.3,1.09Zm22-3.72-1.4-1.07-1.38-1.07,10.46-1.88,1.48,1,1.48,1.05Zm28.62-5.5-2.5.52-2.52.52c-.84.18-1.69.35-2.54.51l-1.59-1-1.59-1,2.5-.49,2.47-.5,2.44-.51,2.42-.51,1.69,1,1.7,1Zm19.1-4.42-2.29.58-2.32.57-2.35.56-1.83-.95-1.79-.94c.77-.17,1.53-.36,2.29-.54l2.27-.55,2.23-.55,2.21-.56L475,423l1.93.91Zm17.18-4.87-2,.63-2.07.63-2.08.63-2.06-.86-2.05-.85,2-.61,2-.6,2-.61,1.92-.62,2.15.8,2.18.8ZM158.24,782.38l-7,4.94-13.33-17.15,7-4.57,6.85-4.51,13.34,16.42Z"/><polygon class="cls-3" points="439.32 341.8 437.73 342.08 442.5 343.6 444.07 343.31 445.64 343.02 440.9 341.52 439.32 341.8"/><path class="cls-3" d="M434.17,339.3l-1.07-.37-1.06-.37-1.61.25-1.63.25,1.07.38,1.08.37,1.1.38,1.1.38,1.61-.27,1.59-.26-1.1-.37Z"/><path class="cls-3" d="M426.1,336.35l-.92-.37-.9-.37-1.68.21-1.68.21.92.38.94.38,1,.38,1,.38,1.65-.23,1.64-.24-1-.36Z"/><path class="cls-3" d="M419.39,333.38l-.72-.37-.69-.37-1.74.16-1.74.16.71.39.74.38.76.39.79.38,1.71-.19,1.7-.18-.77-.38Z"/><polygon class="cls-3" points="459.17 347.96 457.59 348.27 462.78 349.88 464.38 349.57 465.97 349.26 460.75 347.65 459.17 347.96"/><path class="cls-3" d="M415,330.77c-.18-.12-.35-.25-.51-.37L414,330l-.43-.37-1.8.1-1.78.1.44.39.48.39.52.39.56.39,1.77-.14,1.76-.13C415.31,331,415.13,330.9,415,330.77Z"/><polygon class="cls-3" points="448.98 344.84 447.41 345.13 452.45 346.69 454.02 346.38 455.59 346.08 450.55 344.54 448.98 344.84"/><polygon class="cls-3" points="469.64 351.23 468.02 351.54 473.27 353.25 474.92 352.94 476.57 352.63 471.25 350.92 469.64 351.23"/><path class="cls-3" d="M409.52,326.71l-1.8,0c0,.13.1.26.15.39l.19.38a3.84,3.84,0,0,0,.22.39c.08.13.16.26.25.39l1.81-.07,1.8-.06-.26-.37-.22-.37-.18-.37a3.59,3.59,0,0,1-.15-.37Z"/><path class="cls-3" d="M407.8,324.09a2.29,2.29,0,0,0-.12.37c0,.12-.06.25-.08.37s0,.26-.05.38h3.58a2.2,2.2,0,0,1,0-.36c0-.12,0-.24.06-.36s.07-.24.11-.36.1-.23.16-.35l-1.76,0-1.76,0A2.53,2.53,0,0,0,407.8,324.09Z"/><path class="cls-3" d="M410.48,320.86l-.08.06-.07.05-.07.06-.06.05-.05,0,0,0-.05,0-.05,0h0l0,0h0l0,0,0,0,0,0,0,0-.09.09-.1.09-.09.09-.09.09-.13.12-.11.12-.12.12-.12.12,1.72.07,1.73.07.22-.24.22-.23.24-.23.24-.23,0,0,0,0,0,0,0,0,.1-.08.09-.07.1-.08.1-.08-1.68-.09Z"/><path class="cls-3" d="M415.68,319.75l.53-.32.55-.31.57-.32.6-.3-1.58-.14-1.58-.13-.63.31-.59.33c-.2.1-.39.21-.57.32l-.56.33,1.63.11Z"/><path class="cls-3" d="M489.47,417.37l-1.92.62-2,.61-2,.6-2,.61,2.05.85,2.06.86,2.08-.63,2.07-.63,2-.63,2-.66-2.18-.8Z"/><path class="cls-3" d="M521.3,400.53c-.23.25-.46.51-.71.76l-.78.75c-.26.25-.54.51-.83.75l-.88.75,2.63.46,2.65.46c.31-.26.61-.52.9-.79s.58-.52.86-.79.53-.52.79-.79.49-.53.72-.8l-2.68-.38Z"/><path class="cls-3" d="M531.27,388.66l-2.63-.13-2.63-.12c0,.25,0,.5,0,.75v.75c0,.25,0,.5,0,.75s0,.5-.08.75l2.66.18,2.66.17c0-.26,0-.52.07-.78s0-.52,0-.78,0-.52,0-.77S531.29,388.91,531.27,388.66Z"/><path class="cls-3" d="M524.87,395.2a7.6,7.6,0,0,1-.37.76c-.13.26-.27.51-.42.77l-.44.76,2.7.31,2.7.31.43-.8c.15-.27.29-.53.42-.8s.26-.53.36-.79a6.35,6.35,0,0,0,.28-.8l-2.69-.24-2.69-.24A5.34,5.34,0,0,1,524.87,395.2Z"/><path class="cls-3" d="M519.2,407.57l-2.59-.54L514,406.5l-1.17.72c-.39.25-.79.49-1.2.73l-1.26.72c-.43.23-.87.47-1.33.7l2.49.61,2.51.61,1.38-.74,1.29-.76c.43-.25.84-.5,1.25-.76Z"/><path class="cls-3" d="M454.64,426.43l-2.42.51-2.44.51-2.47.5-2.5.49,1.59,1,1.59,1c.85-.16,1.7-.33,2.54-.51l2.52-.52,2.5-.52,2.48-.53-1.7-1Z"/><path class="cls-3" d="M484.5,355.3l-1.32-.45-1.31-.46-1.68.31-1.69.31,1.3.45,1.29.45,1.29.46,1.28.46,1.74-.3,1.73-.3-1.31-.47Z"/><path class="cls-3" d="M503.31,412.16l-1.57.67-1.62.67-1.66.67-1.71.65,2.28.74,2.3.75,1.77-.69,1.72-.69,1.67-.71c.55-.23,1.09-.47,1.62-.71l-2.41-.68Z"/><path class="cls-3" d="M473.07,422.12l-2.21.56-2.23.55-2.27.55c-.76.18-1.52.37-2.29.54l1.79.94,1.83.95,2.35-.56,2.32-.57,2.29-.58,2.26-.58L475,423Z"/><path class="cls-3" d="M511.44,366.71l-2.06.22-2.08.21,1,.57,1,.59,1,.58,1,.6,2.16-.19,2.15-.18-1-.61-1-.61-1-.59C512.16,367.1,511.81,366.9,511.44,366.71Z"/><path class="cls-3" d="M505.85,363.86l-1.17-.55-1.18-.54-1.2-.54-1.91.26-1.91.26,1.16.53,1.15.53,1.13.54,1.13.55,2-.24,2-.24Z"/><path class="cls-3" d="M491.25,359.7l1.23.5,1.22.5,1.85-.28,1.84-.28-1.25-.51-1.27-.5-1.27-.5-1.28-.49-1.78.29-1.78.3,1.24.48Z"/><path class="cls-3" d="M521,372.91l-.85-.65-.86-.65-2.24.15-2.23.15.82.63.81.63c.27.21.53.42.78.64s.49.42.72.64l2.32-.11,2.31-.11c-.24-.23-.5-.45-.76-.67S521.3,373.12,521,372.91Z"/><path class="cls-3" d="M521.23,377.75l.57.68c.18.22.36.45.53.68s.33.45.48.68l2.45,0,2.47,0c-.16-.24-.33-.48-.51-.71s-.37-.47-.57-.71l-.6-.7-.6-.69-2.39.07-2.39.07Z"/><path class="cls-3" d="M530.44,384.86c-.09-.24-.19-.49-.29-.74l-.33-.74c-.11-.25-.21-.49-.31-.74l-2.53,0-2.53,0c.09.24.19.48.29.72l.3.71c.09.24.19.48.26.73a4.79,4.79,0,0,1,.19.72l2.58.07,2.59.08A6.61,6.61,0,0,0,530.44,384.86Z"/><polygon class="cls-5" points="734.72 245.95 496.08 245.95 496.08 243.05 734.72 243.05 734.72 245.95 734.72 245.95"/><path class="cls-6" d="M774.6,273c0,6.05-73.64,11-164.48,11s-164.48-4.91-164.48-11,73.64-11,164.48-11S774.6,267,774.6,273Z"/><rect class="cls-7" x="615.4" y="84.32" width="119.31" height="160.17"/><path class="cls-8" d="M730.6,79c-1.6-1.43-7.13-6.87-7.13-6.87L651.88,3.08a20.87,20.87,0,0,0-3.3-2.61c-1.12-.53-4.36-.47-4.36-.47H586.57s-3.24-.06-4.35.47a20.6,20.6,0,0,0-3.31,2.61L507.32,72.16S501.8,77.6,500.2,79c-3.59,3.21-4.11,5.29-4.11,5.29H734.71S734.19,82.24,730.6,79Z"/><rect class="cls-7" x="496.09" y="84.32" width="119.31" height="160.17"/><rect class="cls-9" x="514.61" y="27.57" width="201.18" height="170.58"/><g class="cls-10"><path class="cls-11" d="M535.78,185.65c1.08-27.82,25.22-50.47,57.6-57.28q-6.68-8.72-14.14-17.41c-8.26-9.6-16.73-18.51-25.2-26.64H496.09v88c1.63,2,3.28,3.93,5,5.9,25.5,29.62,52.9,52.73,76.68,66.24h3C553.33,233.68,534.78,211.07,535.78,185.65Z"/><path class="cls-12" d="M734.71,84.32H679.58a365.72,365.72,0,0,0-31,29.1q-7.14,7.52-13.55,15.08c35.43,7.58,61.15,33.54,60,63.36a50.94,50.94,0,0,1-7,23.61,353.16,353.16,0,0,0,44.41-39.68c.76-.8,1.49-1.6,2.24-2.4Z"/><path class="cls-13" d="M635,128.5a101,101,0,0,0-17.2-2.16,100,100,0,0,0-24.45,2,347.79,347.79,0,0,1,19.9,28.79A317.67,317.67,0,0,1,635,128.5Z"/><path class="cls-14" d="M638.79,244.49h14c15.52-6.24,28-16.44,35.32-29-17.27,12.89-34.12,22.62-49,28.39C639,244.08,638.88,244.28,638.79,244.49Z"/><path class="cls-15" d="M613.28,157.16a347.79,347.79,0,0,0-19.9-28.79c-32.38,6.81-56.52,29.46-57.6,57.28-1,25.42,17.55,48,45,58.84H594.3C578.31,231.29,587,196.46,613.28,157.16Z"/><path class="cls-16" d="M613.28,157.16a347.79,347.79,0,0,0-19.9-28.79c-32.38,6.81-56.52,29.46-57.6,57.28-1,25.42,17.55,48,45,58.84H594.3C578.31,231.29,587,196.46,613.28,157.16Z"/><path class="cls-17" d="M637.33,244.49h1.46c.09-.21.19-.41.27-.63Z"/><path class="cls-18" d="M637.33,244.49h1.46c.09-.21.19-.41.27-.63Z"/><path class="cls-19" d="M635,128.5a317.67,317.67,0,0,0-21.75,28.66c22.3,36.1,32.36,68.84,25.78,86.7,14.88-5.77,31.73-15.5,49-28.39a50.94,50.94,0,0,0,7-23.61C696.18,162,670.46,136.08,635,128.5Z"/><path class="cls-20" d="M635,128.5a317.67,317.67,0,0,0-21.75,28.66c22.3,36.1,32.36,68.84,25.78,86.7,14.88-5.77,31.73-15.5,49-28.39a50.94,50.94,0,0,0,7-23.61C696.18,162,670.46,136.08,635,128.5Z"/><path class="cls-21" d="M613.28,157.16c-26.31,39.3-35,74.13-19,87.33h43l1.73-.63C645.64,226,635.58,193.26,613.28,157.16Z"/><path class="cls-22" d="M613.28,157.16c-26.31,39.3-35,74.13-19,87.33h43l1.73-.63C645.64,226,635.58,193.26,613.28,157.16Z"/><path class="cls-23" d="M613.28,157.16c-26.31,39.3-35,74.13-19,87.33h43l1.73-.63C645.64,226,635.58,193.26,613.28,157.16Z"/></g><path class="cls-24" d="M562,243.05v-43.4l22.41-22.4-84-87.76s-2.19-2.31-2.67-2.94c-1.7-2.23-1.7-2-1.7-2V243.05Z"/><path class="cls-24" d="M668.76,243.05v-43.4l-22.41-22.4,84-87.76s2.15-2.34,2.67-2.94c1.7-2,1.7-2.23,1.7-2.23V243.05Z"/><path class="cls-8" d="M562,244.5V201.1l22.41-22.4-84-87.76s-2.15-2.34-2.67-2.94a6,6,0,0,1-1.7-3.52v160Z"/><path class="cls-8" d="M668.76,244.5V201.1l-22.41-22.4,84-87.76S732.49,88.6,733,88a6,6,0,0,0,1.7-3.52v160Z"/><path class="cls-7" d="M569,180.59c2.51-2.21,3-2.56,4.21-3,1.43-.54,5.87-.47,5.87-.47h5.21c-.45-.44-1.09-1.14-1.53-1.6l-3.68.15s-4.44-.07-5.87.46c-1.24.47-1.7.82-4.21,3-15.06,13.21-67.8,59.48-69.21,60.69a22.92,22.92,0,0,0-3.72,4.67l3.72-3.22C501.22,240.06,554,193.79,569,180.59Z"/><path class="cls-7" d="M657.57,177.57c1.23.46,1.69.81,4.21,3,15.05,13.2,67.8,59.47,69.2,60.68l3.73,3.22a22.74,22.74,0,0,0-3.73-4.67c-1.4-1.21-54.15-47.48-69.2-60.69-2.52-2.2-3-2.55-4.21-3-1.43-.53-5.87-.46-5.87-.46h-3.82c-.41.53-.89.9-1.36,1.45h5.18S656.14,177,657.57,177.57Z"/><path class="cls-24" d="M499.81,242.72C501.22,241.51,554,195.24,569,182c2.51-2.21,3-2.56,4.21-3,1.43-.54,5.87-.47,5.87-.47h72.6s4.44-.07,5.87.47c1.23.46,1.69.81,4.21,3,15.05,13.2,67.8,59.47,69.2,60.68a7.11,7.11,0,0,0,3.63,1.77h.1L731,241.27c-1.4-1.21-54.15-47.48-69.2-60.68-2.52-2.21-3-2.56-4.21-3-1.43-.54-5.87-.47-5.87-.47H579.1s-4.44-.07-5.87.47c-1.24.46-1.7.81-4.21,3-15.06,13.2-67.8,59.47-69.21,60.68l-3.72,3.22h.1A7.06,7.06,0,0,0,499.81,242.72Z"/><path class="cls-8" d="M734.61,244.49a7.11,7.11,0,0,1-3.63-1.77c-1.4-1.21-54.15-47.48-69.2-60.68-2.52-2.21-3-2.56-4.21-3-1.43-.54-5.87-.47-5.87-.47H579.1s-4.44-.07-5.87.47c-1.24.46-1.7.81-4.21,3-15.06,13.2-67.8,59.47-69.21,60.68a7.06,7.06,0,0,1-3.62,1.77H734.61Z"/><text class="cls-25" transform="translate(535.74 89)">Hej <tspan class="cls-26" x="12.46" y="0">C</tspan><tspan class="cls-27" x="16.9" y="0">allel</tspan><tspan class="cls-28" x="30" y="0">l</tspan><tspan x="31.75" y="0">,</tspan><tspan class="cls-29"><tspan class="cls-30" x="0" y="18.6">L</tspan><tspan x="2.53" y="18.6">o</tspan><tspan class="cls-31" x="5.57" y="18.6">r</tspan><tspan class="cls-32" x="7.33" y="18.6">em ipsum dolor sit ame</tspan><tspan class="cls-33" x="61.4" y="18.6">t</tspan><tspan x="63.21" y="18.6">, </tspan><tspan class="cls-34" x="65.53" y="18.6">c</tspan><tspan class="cls-32" x="67.98" y="18.6">onse</tspan><tspan class="cls-35" x="79.05" y="18.6">c</tspan><tspan class="cls-36" x="81.6" y="18.6">t</tspan><tspan class="cls-37" x="83.4" y="18.6">etur adipiscing eli</tspan><tspan class="cls-33" x="124.25" y="18.6">t</tspan><tspan x="126.06" y="18.6">, sed do eiusmod </tspan><tspan class="cls-34" x="0" y="25.24">t</tspan><tspan x="1.8" y="25.24">empor incididu</tspan><tspan class="cls-38" x="37.09" y="25.24">n</tspan><tspan class="cls-32" x="40.14" y="25.24">t ut labo</tspan><tspan class="cls-31" x="59.36" y="25.24">r</tspan><tspan x="61.11" y="25.24">e et dolo</tspan><tspan class="cls-39" x="81.34" y="25.24">r</tspan><tspan class="cls-32" x="83.09" y="25.24">e ma</tspan><tspan class="cls-34" x="94.32" y="25.24">g</tspan><tspan class="cls-32" x="97.38" y="25.24">na aliqua. </tspan><tspan class="cls-40" x="120.71" y="25.24">U</tspan><tspan class="cls-32" x="124.32" y="25.24">t enim ad minim </tspan><tspan class="cls-41" x="0" y="31.88">v</tspan><tspan class="cls-37" x="2.61" y="31.88">eniam, quis nostrud </tspan><tspan class="cls-33" x="49.46" y="31.88">e</tspan><tspan class="cls-42" x="52.22" y="31.88">x</tspan><tspan class="cls-37" x="54.7" y="31.88">e</tspan><tspan class="cls-31" x="57.47" y="31.88">r</tspan><tspan x="59.22" y="31.88">cit</tspan><tspan class="cls-38" x="64.83" y="31.88">a</tspan><tspan x="67.47" y="31.88">tion ullam</tspan><tspan class="cls-34" x="90.83" y="31.88">c</tspan><tspan x="93.28" y="31.88">o labo</tspan><tspan class="cls-40" x="107.65" y="31.88">r</tspan><tspan x="109.48" y="31.88">is nisi ut aliquip </tspan><tspan class="cls-33" x="146.27" y="31.88">e</tspan><tspan x="149.03" y="31.88">x ea </tspan><tspan class="cls-34" x="0" y="38.52">c</tspan><tspan class="cls-32" x="2.45" y="38.52">ommodo </tspan><tspan class="cls-34" x="25.09" y="38.52">c</tspan><tspan class="cls-32" x="27.53" y="38.52">onsequ</tspan><tspan class="cls-38" x="44.77" y="38.52">a</tspan><tspan class="cls-33" x="47.42" y="38.52">t</tspan><tspan x="49.23" y="38.52">.</tspan></tspan></text></g></g></g></svg>