<svg xmlns="http://www.w3.org/2000/svg" xmlns:xlink="http://www.w3.org/1999/xlink" viewBox="0 0 328.96 283.97" width="100" height="100"><defs><style>.cls-1{isolation:isolate;}.cls-2{fill:#bbbdbf;}.cls-10,.cls-11,.cls-12,.cls-13,.cls-14,.cls-15,.cls-16,.cls-17,.cls-18,.cls-19,.cls-20,.cls-3,.cls-8,.cls-9{mix-blend-mode:multiply;}.cls-3{fill:url(#radial-gradient);}.cls-4{fill:#d0d2d3;}.cls-5{fill:#e2e2e2;}.cls-6{fill:#fff9df;}.cls-7{opacity:0.79;}.cls-8{fill:url(#radial-gradient-2);}.cls-9{fill:url(#radial-gradient-3);}.cls-10{fill:url(#radial-gradient-4);}.cls-11{fill:url(#radial-gradient-5);}.cls-12{fill:url(#radial-gradient-6);}.cls-13{fill:url(#radial-gradient-7);}.cls-14{fill:url(#radial-gradient-8);}.cls-15{fill:url(#radial-gradient-9);}.cls-16{fill:url(#radial-gradient-10);}.cls-17{fill:url(#radial-gradient-11);}.cls-18{fill:url(#radial-gradient-12);}.cls-19{fill:url(#radial-gradient-13);}.cls-20{fill:url(#radial-gradient-14);}.cls-21{fill:#f1f1f2;}.cls-22{font-size:7.75px;font-family:MyriadPro-Regular, Myriad Pro;}.cls-23{letter-spacing:-0.01em;}.cls-24{letter-spacing:0em;}.cls-25{letter-spacing:-0.01em;}.cls-26{font-size:5.53px;}.cls-27{letter-spacing:-0.01em;}.cls-28{letter-spacing:-0.01em;}.cls-29{letter-spacing:0em;}.cls-30{letter-spacing:0em;}.cls-31{letter-spacing:-0.01em;}.cls-32{letter-spacing:0.01em;}.cls-33{letter-spacing:-0.01em;}.cls-34{letter-spacing:0em;}.cls-35{letter-spacing:0em;}.cls-36{letter-spacing:-0.01em;}.cls-37{letter-spacing:0em;}.cls-38{letter-spacing:-0.01em;}.cls-39{letter-spacing:-0.01em;}</style><radialGradient id="radial-gradient" cx="164.48" cy="-1175.14" r="164.5" gradientTransform="translate(0 351.28) scale(1 0.07)" gradientUnits="userSpaceOnUse"><stop offset="0" stop-color="#d0d2d3"/><stop offset="0.78" stop-color="#fff"/></radialGradient><radialGradient id="radial-gradient-2" cx="208.22" cy="249.94" r="58.09" gradientTransform="matrix(0.67, -0.58, 1.6, 1.86, -445.72, -199.7)" xlink:href="#radial-gradient"/><radialGradient id="radial-gradient-3" cx="137.88" cy="230.76" r="58.09" gradientTransform="matrix(-0.72, -0.54, -1.64, 1.73, 723.66, -180.78)" xlink:href="#radial-gradient"/><radialGradient id="radial-gradient-4" cx="192.44" cy="381.77" r="58.09" gradientTransform="matrix(0.04, -1.07, 1.37, 0.05, -361.55, 375.08)" xlink:href="#radial-gradient"/><radialGradient id="radial-gradient-5" cx="192.44" cy="381.77" r="58.09" gradientTransform="matrix(0.04, -1.07, 1.37, 0.05, -361.55, 375.08)" xlink:href="#radial-gradient"/><radialGradient id="radial-gradient-6" cx="208.22" cy="249.94" r="58.09" gradientTransform="matrix(0.67, -0.58, 1.6, 1.86, -445.72, -199.7)" xlink:href="#radial-gradient"/><radialGradient id="radial-gradient-7" cx="192.44" cy="381.77" r="58.09" gradientTransform="matrix(0.04, -1.07, 1.37, 0.05, -361.55, 375.08)" xlink:href="#radial-gradient"/><radialGradient id="radial-gradient-8" cx="208.22" cy="249.95" r="58.07" gradientTransform="matrix(0.67, -0.58, 1.6, 1.86, -445.72, -199.7)" xlink:href="#radial-gradient"/><radialGradient id="radial-gradient-9" cx="192.5" cy="381.76" r="58.16" gradientTransform="matrix(0.04, -1.07, 1.37, 0.05, -361.55, 375.08)" xlink:href="#radial-gradient"/><radialGradient id="radial-gradient-10" cx="137.88" cy="230.76" r="58.09" gradientTransform="matrix(-0.72, -0.54, -1.64, 1.73, 723.66, -180.78)" xlink:href="#radial-gradient"/><radialGradient id="radial-gradient-11" cx="192.44" cy="381.77" r="58.09" gradientTransform="matrix(0.04, -1.07, 1.37, 0.05, -361.55, 375.08)" xlink:href="#radial-gradient"/><radialGradient id="radial-gradient-12" cx="208.22" cy="249.94" r="58.09" gradientTransform="matrix(0.67, -0.58, 1.6, 1.86, -445.72, -199.7)" xlink:href="#radial-gradient"/><radialGradient id="radial-gradient-13" cx="137.88" cy="230.76" r="58.09" gradientTransform="matrix(-0.72, -0.54, -1.64, 1.73, 723.66, -180.78)" xlink:href="#radial-gradient"/><radialGradient id="radial-gradient-14" cx="192.44" cy="381.77" r="58.09" gradientTransform="matrix(0.04, -1.07, 1.37, 0.05, -361.55, 375.08)" xlink:href="#radial-gradient"/></defs><title>Resurs 2</title><g class="cls-1"><g id="Lager_2" data-name="Lager 2"><g id="Layer_1" data-name="Layer 1"><polygon class="cls-2" points="289.08 245.95 50.44 245.95 50.44 243.05 289.08 243.05 289.08 245.95 289.08 245.95"/><path class="cls-3" d="M329,273c0,6.05-73.64,11-164.48,11S0,279.06,0,273s73.64-11,164.48-11S329,267,329,273Z"/><rect class="cls-4" x="169.76" y="84.32" width="119.31" height="160.17"/><path class="cls-5" d="M285,79c-1.6-1.43-7.13-6.87-7.13-6.87L206.24,3.08a20.87,20.87,0,0,0-3.3-2.61c-1.11-.53-4.36-.47-4.36-.47H140.93s-3.24-.06-4.35.47a20.39,20.39,0,0,0-3.3,2.61L61.68,72.16S56.16,77.6,54.56,79c-3.59,3.21-4.11,5.29-4.11,5.29H289.07S288.55,82.24,285,79Z"/><rect class="cls-4" x="50.45" y="84.32" width="119.31" height="160.17"/><rect class="cls-6" x="68.97" y="27.57" width="201.18" height="170.58"/><g class="cls-7"><path class="cls-8" d="M90.14,185.65c1.08-27.82,25.22-50.47,57.6-57.28q-6.68-8.72-14.14-17.41c-8.26-9.6-16.73-18.51-25.2-26.64H50.45v88c1.63,2,3.28,3.93,5,5.9,25.5,29.62,52.9,52.73,76.68,66.24h3C107.69,233.68,89.14,211.07,90.14,185.65Z"/><path class="cls-9" d="M289.07,84.32H233.94a365.72,365.72,0,0,0-31,29.1q-7.14,7.52-13.55,15.08c35.43,7.58,61.15,33.54,60,63.36a50.94,50.94,0,0,1-7,23.61,353.16,353.16,0,0,0,44.41-39.68c.76-.8,1.49-1.6,2.24-2.4Z"/><path class="cls-10" d="M189.39,128.5a101,101,0,0,0-17.2-2.16,100,100,0,0,0-24.45,2,347.79,347.79,0,0,1,19.9,28.79A317.67,317.67,0,0,1,189.39,128.5Z"/><path class="cls-11" d="M193.15,244.49H207.1c15.52-6.24,28-16.44,35.32-29-17.27,12.89-34.12,22.62-49,28.39C193.34,244.08,193.24,244.28,193.15,244.49Z"/><path class="cls-12" d="M167.64,157.16a347.79,347.79,0,0,0-19.9-28.79c-32.38,6.81-56.52,29.46-57.6,57.28-1,25.42,17.55,48,45,58.84h13.53C132.67,231.29,141.33,196.46,167.64,157.16Z"/><path class="cls-13" d="M167.64,157.16a347.79,347.79,0,0,0-19.9-28.79c-32.38,6.81-56.52,29.46-57.6,57.28-1,25.42,17.55,48,45,58.84h13.53C132.67,231.29,141.33,196.46,167.64,157.16Z"/><path class="cls-14" d="M191.69,244.49h1.46c.09-.21.19-.41.27-.63Z"/><path class="cls-15" d="M191.69,244.49h1.46c.09-.21.19-.41.27-.63Z"/><path class="cls-16" d="M189.39,128.5a317.67,317.67,0,0,0-21.75,28.66c22.3,36.1,32.36,68.84,25.78,86.7,14.88-5.77,31.73-15.5,49-28.39a50.94,50.94,0,0,0,7-23.61C250.54,162,224.82,136.08,189.39,128.5Z"/><path class="cls-17" d="M189.39,128.5a317.67,317.67,0,0,0-21.75,28.66c22.3,36.1,32.36,68.84,25.78,86.7,14.88-5.77,31.73-15.5,49-28.39a50.94,50.94,0,0,0,7-23.61C250.54,162,224.82,136.08,189.39,128.5Z"/><path class="cls-18" d="M167.64,157.16c-26.31,39.3-35,74.13-19,87.33h43l1.73-.63C200,226,189.94,193.26,167.64,157.16Z"/><path class="cls-19" d="M167.64,157.16c-26.31,39.3-35,74.13-19,87.33h43l1.73-.63C200,226,189.94,193.26,167.64,157.16Z"/><path class="cls-20" d="M167.64,157.16c-26.31,39.3-35,74.13-19,87.33h43l1.73-.63C200,226,189.94,193.26,167.64,157.16Z"/></g><path class="cls-21" d="M116.4,243.05v-43.4l22.41-22.4-84-87.76s-2.19-2.31-2.67-2.94c-1.7-2.23-1.7-2-1.7-2V243.05Z"/><path class="cls-21" d="M223.12,243.05v-43.4l-22.41-22.4,84-87.76s2.15-2.34,2.67-2.94c1.7-2,1.7-2.23,1.7-2.23V243.05Z"/><path class="cls-5" d="M116.4,244.5V201.1l22.41-22.4-84-87.76S52.67,88.6,52.15,88a6,6,0,0,1-1.7-3.52v160Z"/><path class="cls-5" d="M223.12,244.5V201.1l-22.41-22.4,84-87.76s2.15-2.34,2.67-2.94a6,6,0,0,0,1.7-3.52v160Z"/><path class="cls-4" d="M123.38,180.59c2.51-2.21,3-2.56,4.21-3,1.43-.54,5.87-.47,5.87-.47h5.21c-.45-.44-1.09-1.14-1.53-1.6l-3.68.15s-4.44-.07-5.87.46c-1.24.47-1.7.82-4.21,3-15.06,13.21-67.8,59.48-69.21,60.69a22.92,22.92,0,0,0-3.72,4.67l3.72-3.22C55.58,240.06,108.32,193.79,123.38,180.59Z"/><path class="cls-4" d="M211.93,177.57c1.23.46,1.69.81,4.21,3,15.05,13.2,67.8,59.47,69.2,60.68l3.73,3.22a22.74,22.74,0,0,0-3.73-4.67c-1.4-1.21-54.15-47.48-69.2-60.69-2.52-2.2-3-2.55-4.21-3-1.43-.53-5.87-.46-5.87-.46h-3.82c-.41.53-.89.9-1.36,1.45h5.18S210.5,177,211.93,177.57Z"/><path class="cls-21" d="M54.17,242.72c1.41-1.21,54.15-47.48,69.21-60.68,2.51-2.21,3-2.56,4.21-3,1.43-.54,5.87-.47,5.87-.47h72.6s4.44-.07,5.87.47c1.23.46,1.69.81,4.21,3,15.05,13.2,67.8,59.47,69.2,60.68a7.11,7.11,0,0,0,3.63,1.77h.1l-3.73-3.22c-1.4-1.21-54.15-47.48-69.2-60.68-2.52-2.21-3-2.56-4.21-3-1.43-.54-5.87-.47-5.87-.47h-72.6s-4.44-.07-5.87.47c-1.24.46-1.7.81-4.21,3-15.06,13.2-67.8,59.47-69.21,60.68l-3.72,3.22h.1A7.06,7.06,0,0,0,54.17,242.72Z"/><path class="cls-5" d="M289,244.49a7.11,7.11,0,0,1-3.63-1.77c-1.4-1.21-54.15-47.48-69.2-60.68-2.52-2.21-3-2.56-4.21-3-1.43-.54-5.87-.47-5.87-.47h-72.6s-4.44-.07-5.87.47c-1.24.46-1.7.81-4.21,3-15.06,13.2-67.8,59.47-69.21,60.68a7.06,7.06,0,0,1-3.62,1.77H289Z"/><text class="cls-22" transform="translate(90.1 89)">Hej <tspan class="cls-23" x="12.46" y="0">C</tspan><tspan class="cls-24" x="16.9" y="0">allel</tspan><tspan class="cls-25" x="30" y="0">l</tspan><tspan x="31.75" y="0">,</tspan><tspan class="cls-26"><tspan class="cls-27" x="0" y="18.6">L</tspan><tspan x="2.53" y="18.6">o</tspan><tspan class="cls-28" x="5.57" y="18.6">r</tspan><tspan class="cls-29" x="7.33" y="18.6">em ipsum dolor sit ame</tspan><tspan class="cls-30" x="61.4" y="18.6">t</tspan><tspan x="63.21" y="18.6">, </tspan><tspan class="cls-31" x="65.53" y="18.6">c</tspan><tspan class="cls-29" x="67.98" y="18.6">onse</tspan><tspan class="cls-32" x="79.05" y="18.6">c</tspan><tspan class="cls-33" x="81.6" y="18.6">t</tspan><tspan class="cls-34" x="83.4" y="18.6">etur adipiscing eli</tspan><tspan class="cls-30" x="124.25" y="18.6">t</tspan><tspan x="126.06" y="18.6">, sed do eiusmod </tspan><tspan class="cls-31" x="0" y="25.24">t</tspan><tspan x="1.8" y="25.24">empor incididu</tspan><tspan class="cls-35" x="37.09" y="25.24">n</tspan><tspan class="cls-29" x="40.14" y="25.24">t ut labo</tspan><tspan class="cls-28" x="59.36" y="25.24">r</tspan><tspan x="61.11" y="25.24">e et dolo</tspan><tspan class="cls-36" x="81.34" y="25.24">r</tspan><tspan class="cls-29" x="83.09" y="25.24">e ma</tspan><tspan class="cls-31" x="94.32" y="25.24">g</tspan><tspan class="cls-29" x="97.38" y="25.24">na aliqua. </tspan><tspan class="cls-37" x="120.71" y="25.24">U</tspan><tspan class="cls-29" x="124.32" y="25.24">t enim ad minim </tspan><tspan class="cls-38" x="0" y="31.88">v</tspan><tspan class="cls-34" x="2.61" y="31.88">eniam, quis nostrud </tspan><tspan class="cls-30" x="49.46" y="31.88">e</tspan><tspan class="cls-39" x="52.22" y="31.88">x</tspan><tspan class="cls-34" x="54.7" y="31.88">e</tspan><tspan class="cls-28" x="57.47" y="31.88">r</tspan><tspan x="59.22" y="31.88">cit</tspan><tspan class="cls-35" x="64.83" y="31.88">a</tspan><tspan x="67.47" y="31.88">tion ullam</tspan><tspan class="cls-31" x="90.83" y="31.88">c</tspan><tspan x="93.28" y="31.88">o labo</tspan><tspan class="cls-37" x="107.65" y="31.88">r</tspan><tspan x="109.48" y="31.88">is nisi ut aliquip </tspan><tspan class="cls-30" x="146.27" y="31.88">e</tspan><tspan x="149.03" y="31.88">x ea </tspan><tspan class="cls-31" x="0" y="38.52">c</tspan><tspan class="cls-29" x="2.45" y="38.52">ommodo </tspan><tspan class="cls-31" x="25.09" y="38.52">c</tspan><tspan class="cls-29" x="27.53" y="38.52">onsequ</tspan><tspan class="cls-35" x="44.77" y="38.52">a</tspan><tspan class="cls-30" x="47.42" y="38.52">t</tspan><tspan x="49.23" y="38.52">.</tspan></tspan></text></g></g></g></svg>
