<svg id="Layer_1" data-name="Layer 1" xmlns="http://www.w3.org/2000/svg" xmlns:xlink="http://www.w3.org/1999/xlink" viewBox="0 0 657 183"><defs><style>.cls-1{fill:none;}.cls-2{clip-path:url(#clip-path);}.cls-3,.cls-4{fill:#3fa9f5;}.cls-3{opacity:0.71;}</style><clipPath id="clip-path"><rect class="cls-1" width="657" height="183"/></clipPath></defs><title>header2</title><g class="cls-2"><path class="cls-3" d="M-10.91,40.08c2,12.12,5,23.94,4.09,36.31C-7.7,88.32-10,100.26-9.14,112.17c.13,1.7-1.09,2.86-2.67,3.4,3.19,22.64,5.69,45.35,7,68.2,36-1.93,164.21-13.1,319.08-77.58,0,0,78.76-34.63,158.55-33.85,0,0,174.19,10.82,251.22-23.74L728-34.27-14.86-8.65q-.27,7.89-.45,15.79c1.21,11,2.61,22,4.4,32.94"/><path class="cls-4" d="M-13.7,13.2c2,12.12,5,23.94,4.1,36.31-.89,11.93-3.24,23.87-2.32,35.78.12,1.7-1.1,2.86-2.67,3.4,3.19,22.64,5.68,45.36,7,68.2C28.26,155,228.23,133.46,311.52,79.31c0,0,54.36-36.19,158.56-33.85,0,0,129.18,3.34,246.8-52.12l8.31-54.49L-17.65-35.53C-17.83-30.27-18-25-18.1-19.74c1.21,11,2.62,22,4.4,32.94"/></g></svg>