<svg xmlns="http://www.w3.org/2000/svg" viewBox="0 0 338.67 102.81"><defs><style>.cls-1{fill:#f39200;}.cls-2,.cls-3{fill:#f6f6f6;}.cls-3{font-size:80px;font-family:CenturyGothic-Bold, Century Gothic;font-weight:700;}</style></defs><title>Resurs 9</title><g id="Lager_2" data-name="Lager 2"><g id="Lager_1-2" data-name="Lager 1"><path class="cls-1" d="M0,77.74,12.18,66.13q12.43,13.14,28,13.14A30.65,30.65,0,0,0,71.24,48.19a32.65,32.65,0,0,0-4-16.26A28.52,28.52,0,0,0,56,20.78a32.76,32.76,0,0,0-16.16-4A33.25,33.25,0,0,0,26,19.57q-6.28,2.84-13.81,10.31L.37,17.55Q10.52,7.65,19.54,3.83A52.32,52.32,0,0,1,40.13,0Q61.47,0,75.07,13.53T88.66,48.22a47.44,47.44,0,0,1-6.19,24.33A46,46,0,0,1,64.74,89.66a50,50,0,0,1-24.86,6.47A52.7,52.7,0,0,1,0,77.74Z"/><ellipse id="_Bana_" data-name="&lt;Bana&gt;" class="cls-2" cx="39.61" cy="48.03" rx="35.69" ry="34.76"/><path class="cls-1" d="M19.88,51.82V44.2L59.35,29v7.81l-8.13,3.09V56l8.13,3.21V67ZM30.34,48l13.55,5.29V42.7Z"/><text class="cls-3" transform="translate(95.55 78.28)">Callell</text></g></g></svg>